{
	"asset":{
		"version":"2.0",
		"generator":"Created using the official Cinema 4D glTF Exporter 1.000x284978"
	},
	"scenes":[{
		"nodes":[0]
	}],
	"nodes":[{
		"name":"Plane",
		"translation":[0.0,
		0.0,
		0.0],
		"rotation":[0.0,
		0.0,
		0.0,
		-1.0],
		"scale":[1.0,
		1.0,
		1.0],
		"mesh":0
	}],
	"meshes":[{
		"weights":[0.0],
		"name":"Plane",
		"primitives":[{
			"targets":[{
				"POSITION":2
			}],
			"attributes":{
				"POSITION":1
			},
			"indices":0
		}],
		"extras":{
			"targetNames":["Pose.0"]
		}
	}],
	"accessors":[{
		"bufferView":0,
		"type":"SCALAR",
		"componentType":5123,
		"count":24,
		"byteOffset":0,
		"min":[0],
		"max":[11]
	},
	{
		"bufferView":1,
		"type":"VEC3",
		"componentType":5126,
		"count":12,
		"byteOffset":0,
		"min":[-0.006814294960349798,
		0.0,
		-0.006923486012965441],
		"max":[0.004999999888241291,
		0.007248076610267162,
		0.004999999888241291]
	},
	{
		"bufferView":2,
		"type":"VEC3",
		"componentType":5126,
		"count":12,
		"byteOffset":0,
		"min":[0.0,
		-0.007747569587081671,
		-8.673617379884036e-19],
		"max":[0.0,
		0.0,
		0.0]
	},
	{
		"bufferView":3,
		"type":"SCALAR",
		"componentType":5126,
		"count":4,
		"byteOffset":0,
		"min":[0.0],
		"max":[2.0]
	},
	{
		"bufferView":3,
		"type":"SCALAR",
		"componentType":5126,
		"count":4,
		"byteOffset":16,
		"min":[0.0],
		"max":[1.0]
	}],
	"bufferViews":[{
		"buffer":0,
		"byteOffset":0,
		"byteLength":48,
		"target":34963
	},
	{
		"buffer":0,
		"byteOffset":48,
		"byteLength":144,
		"target":34962
	},
	{
		"buffer":0,
		"byteOffset":192,
		"byteLength":144,
		"target":34962
	},
	{
		"buffer":1,
		"byteOffset":0,
		"byteLength":32
	}],
	"animations":[{
		"samplers":[{
			"input":3,
			"interpolation":"LINEAR",
			"output":4
		}],
		"channels":[{
			"sampler":0,
			"target":{
				"node":0,
				"path":"weights"
			}
		}]
	}],
	"buffers":[{
		"uri":"data:application/octet-stream;base64,",
		"byteLength":336
	},
	{
		"uri":"data:application/octet-stream;base64,",
		"byteLength":32
	}]
}