{
	"asset":{
		"version":"2.0",
		"generator":"Created using the official Cinema 4D glTF Exporter 1.000x284978"
	},
	"scenes":[{
		"nodes":[0,
		6,
		12,
		19]
	}],
	"nodes":[{
		"name":"slice3",
		"translation":[0.3076624870300293,
		-0.7930654883384705,
		1.776356799695581e-17],
		"rotation":[-6.214449785177777e-17,
		6.198210575392136e-17,
		0.9630762934684753,
		-0.26922860741615298],
		"children":[1,
		3],
		"scale":[1.0,
		1.0,
		1.0],
		"mesh":0
	},
	{
		"name":"slice3_2",
		"translation":[-0.45529723167419436,
		-8.526512638538789e-16,
		-0.26286599040031435],
		"rotation":[-0.2579241693019867,
		0.2494213879108429,
		0.06911057233810425,
		0.9308533072471619],
		"children":[2],
		"scale":[1.0,
		1.0,
		1.0],
		"mesh":1
	},
	{
		"name":"slice3_2_2",
		"translation":[-0.26286599040031435,
		0.0,
		-0.45529723167419436],
		"rotation":[-0.06894850730895996,
		-0.24946622550487519,
		0.2573193311691284,
		0.9310206770896912],
		"scale":[1.0,
		1.0,
		1.0],
		"mesh":2
	},
	{
		"name":"slice3_1",
		"translation":[-0.45529723167419436,
		-8.526512638538789e-16,
		0.26286599040031435],
		"rotation":[-0.25775596499443056,
		0.24943387508392335,
		-0.06906549632549286,
		-0.9308998584747315],
		"children":[4],
		"scale":[1.0,
		1.0,
		1.0],
		"mesh":3
	},
	{
		"name":"slice3_2_3",
		"translation":[-0.26286599040031435,
		-5.684341759025859e-16,
		0.45529723167419436],
		"rotation":[-0.2586817443370819,
		0.9306430220603943,
		0.06931360065937042,
		-0.24936506152153016],
		"children":[5],
		"scale":[1.0,
		1.0,
		1.0],
		"mesh":4
	},
	{
		"name":"slice3_1_2",
		"translation":[0.45529723167419436,
		0.0,
		-0.26286599040031435],
		"rotation":[0.2576586604118347,
		0.24944108724594117,
		0.06903943419456482,
		-0.9309267997741699],
		"scale":[1.0,
		1.0,
		1.0],
		"mesh":5
	},
	{
		"name":"slice_2",
		"translation":[-0.14762857556343079,
		-0.7954347133636475,
		0.26286599040031435],
		"rotation":[-0.4814947545528412,
		-0.134769469499588,
		-0.8351767063140869,
		-0.22908471524715424],
		"children":[7,
		10],
		"scale":[1.0,
		1.0,
		1.0],
		"mesh":6
	},
	{
		"name":"slice_2_1",
		"translation":[0.45529723167419436,
		2.8421708795129299e-16,
		-0.26286599040031435],
		"rotation":[-0.1335180699825287,
		0.4818432629108429,
		-0.23126007616519929,
		0.8345770239830017],
		"children":[8],
		"scale":[1.0,
		1.0,
		1.0],
		"mesh":7
	},
	{
		"name":"slice_2_2",
		"translation":[0.45529723167419436,
		-4.2632563192693947e-16,
		0.26286599040031435],
		"rotation":[-0.13348928093910218,
		0.4818512499332428,
		0.23121017217636109,
		-0.8345908522605896],
		"children":[9],
		"scale":[1.0,
		1.0,
		1.0],
		"mesh":8
	},
	{
		"name":"slice_2_2_2",
		"translation":[0.45529723167419436,
		-2.8421708795129299e-16,
		-0.26286599040031435],
		"rotation":[-0.13371542096138,
		0.4817885458469391,
		-0.23160186409950257,
		0.8344821929931641],
		"scale":[1.0,
		1.0,
		1.0],
		"mesh":9
	},
	{
		"name":"slice_2_3",
		"translation":[0.45529723167419436,
		1.4210854397564649e-16,
		0.26286599040031435],
		"rotation":[-0.2311505824327469,
		-0.8346073031425476,
		-0.13345494866371156,
		-0.48186078667640688],
		"children":[11],
		"scale":[1.0,
		1.0,
		1.0],
		"mesh":10
	},
	{
		"name":"slice_2_2_3",
		"translation":[-0.45529723167419436,
		-2.8421708795129299e-16,
		0.26286599040031435],
		"rotation":[-0.2578049302101135,
		0.24943023920059205,
		-0.06907862424850464,
		-0.9308863282203674],
		"scale":[1.0,
		1.0,
		1.0],
		"mesh":11
	},
	{
		"name":"slice",
		"translation":[-0.14762857556343079,
		-0.7954347133636475,
		-0.26286599040031435],
		"rotation":[-0.2501600682735443,
		0.25746601819992068,
		-0.9309659600257874,
		-0.06658460944890976],
		"children":[13,
		14],
		"scale":[1.0,
		1.0,
		1.0],
		"mesh":12
	},
	{
		"name":"slice_1_rest",
		"translation":[-0.26286599040031435,
		9.94759834299305e-16,
		-0.45529723167419436],
		"rotation":[-0.23102311789989472,
		0.48188114166259768,
		0.13338126242160798,
		0.8346426486968994],
		"scale":[1.0,
		1.0,
		1.0],
		"mesh":13
	},
	{
		"name":"slice_1_rest_1",
		"translation":[0.26286599040031435,
		9.947598131234813e-15,
		-0.45529723167419436],
		"rotation":[-0.06919582188129425,
		0.2495637983083725,
		-0.2586224377155304,
		0.9306150078773499],
		"children":[15],
		"scale":[1.0,
		1.0,
		1.0],
		"mesh":14
	},
	{
		"name":"slice_1_rest_2",
		"translation":[0.4554139971733093,
		5.684341759025859e-16,
		-0.2626636326313019],
		"rotation":[-0.23110677301883698,
		-0.8347347378730774,
		0.13336117565631867,
		0.4816870391368866],
		"children":[16],
		"scale":[1.0,
		1.0,
		1.0],
		"mesh":15
	},
	{
		"name":"slice_1_rest_3",
		"translation":[-0.45529723167419436,
		2.8421708795129299e-16,
		0.26286599040031435],
		"rotation":[-0.06912802159786225,
		0.9308352470397949,
		0.2579892873764038,
		0.2494165450334549],
		"children":[17],
		"scale":[1.0,
		1.0,
		1.0],
		"mesh":16
	},
	{
		"name":"slice_1_rest_2_2",
		"translation":[0.26286599040031435,
		2.700062362007063e-15,
		-0.45529723167419436],
		"rotation":[-0.2577545642852783,
		-0.9309002757072449,
		0.0690651535987854,
		0.2494339793920517],
		"children":[18],
		"scale":[1.0,
		1.0,
		1.0],
		"mesh":17
	},
	{
		"name":"slice_1_rest_3_2",
		"translation":[-0.45529723167419436,
		-4.2632563192693947e-16,
		-0.26286599040031435],
		"rotation":[-0.0690484419465065,
		0.930917501449585,
		-0.2576923072338104,
		-0.2494385838508606],
		"scale":[1.0,
		1.0,
		1.0],
		"mesh":18
	},
	{
		"name":"bottom",
		"translation":[0.0,
		0.0,
		0.0],
		"rotation":[0.0,
		0.0,
		0.5649431943893433,
		-0.8251298069953919],
		"scale":[1.0,
		1.0,
		1.0],
		"mesh":19
	}],
	"meshes":[{
		"name":"slice3",
		"primitives":[{
			"attributes":{
				"POSITION":1
			},
			"indices":0
		}]
	},
	{
		"name":"slice3_2",
		"primitives":[{
			"attributes":{
				"POSITION":5
			},
			"indices":4
		}]
	},
	{
		"name":"slice3_2_2",
		"primitives":[{
			"attributes":{
				"POSITION":9
			},
			"indices":8
		}]
	},
	{
		"name":"slice3_1",
		"primitives":[{
			"attributes":{
				"POSITION":13
			},
			"indices":12
		}]
	},
	{
		"name":"slice3_2_3",
		"primitives":[{
			"attributes":{
				"POSITION":17
			},
			"indices":16
		}]
	},
	{
		"name":"slice3_1_2",
		"primitives":[{
			"attributes":{
				"POSITION":21
			},
			"indices":20
		}]
	},
	{
		"name":"slice_2",
		"primitives":[{
			"attributes":{
				"POSITION":25
			},
			"indices":24
		}]
	},
	{
		"name":"slice_2_1",
		"primitives":[{
			"attributes":{
				"POSITION":29
			},
			"indices":28
		}]
	},
	{
		"name":"slice_2_2",
		"primitives":[{
			"attributes":{
				"POSITION":33
			},
			"indices":32
		}]
	},
	{
		"name":"slice_2_2_2",
		"primitives":[{
			"attributes":{
				"POSITION":37
			},
			"indices":36
		}]
	},
	{
		"name":"slice_2_3",
		"primitives":[{
			"attributes":{
				"POSITION":41
			},
			"indices":40
		}]
	},
	{
		"name":"slice_2_2_3",
		"primitives":[{
			"attributes":{
				"POSITION":45
			},
			"indices":44
		}]
	},
	{
		"name":"slice",
		"primitives":[{
			"attributes":{
				"POSITION":49
			},
			"indices":48
		}]
	},
	{
		"name":"slice_1_rest",
		"primitives":[{
			"attributes":{
				"POSITION":53
			},
			"indices":52
		}]
	},
	{
		"name":"slice_1_rest_1",
		"primitives":[{
			"attributes":{
				"POSITION":57
			},
			"indices":56
		}]
	},
	{
		"name":"slice_1_rest_2",
		"primitives":[{
			"attributes":{
				"POSITION":61
			},
			"indices":60
		}]
	},
	{
		"name":"slice_1_rest_3",
		"primitives":[{
			"attributes":{
				"POSITION":65
			},
			"indices":64
		}]
	},
	{
		"name":"slice_1_rest_2_2",
		"primitives":[{
			"attributes":{
				"POSITION":69
			},
			"indices":68
		}]
	},
	{
		"name":"slice_1_rest_3_2",
		"primitives":[{
			"attributes":{
				"POSITION":73
			},
			"indices":72
		}]
	},
	{
		"name":"bottom",
		"primitives":[{
			"attributes":{
				"POSITION":77
			},
			"indices":76
		}]
	}],
	"accessors":[{
		"bufferView":0,
		"type":"SCALAR",
		"componentType":5123,
		"count":3,
		"byteOffset":0,
		"min":[0],
		"max":[2]
	},
	{
		"bufferView":1,
		"type":"VEC3",
		"componentType":5126,
		"count":3,
		"byteOffset":0,
		"min":[-0.9105944633483887,
		-7.98558628111476e-16,
		-0.5257319211959839],
		"max":[7.105427198782324e-17,
		-1.778526329006185e-17,
		0.5257319211959839]
	},
	{
		"bufferView":2,
		"type":"SCALAR",
		"componentType":5126,
		"count":91,
		"byteOffset":0,
		"min":[0.0],
		"max":[3.0]
	},
	{
		"bufferView":2,
		"type":"VEC4",
		"componentType":5126,
		"count":91,
		"byteOffset":364,
		"min":[-6.773667554399966e-17,
		2.592488429934493e-17,
		0.9332408308982849,
		-0.3592514097690582],
		"max":[1.1562494384027507e-17,
		7.635870994088489e-17,
		0.9999988675117493,
		-0.0015238601481541992]
	},
	{
		"bufferView":3,
		"type":"SCALAR",
		"componentType":5123,
		"count":3,
		"byteOffset":0,
		"min":[0],
		"max":[2]
	},
	{
		"bufferView":4,
		"type":"VEC3",
		"componentType":5126,
		"count":3,
		"byteOffset":0,
		"min":[-0.5257319211959839,
		-5.329070399086743e-17,
		-0.9105944633483887],
		"max":[0.5257319211959839,
		5.329070399086743e-17,
		3.552713599391162e-17]
	},
	{
		"bufferView":5,
		"type":"SCALAR",
		"componentType":5126,
		"count":91,
		"byteOffset":0,
		"min":[0.0],
		"max":[3.0]
	},
	{
		"bufferView":5,
		"type":"VEC4",
		"componentType":5126,
		"count":91,
		"byteOffset":364,
		"min":[-0.34466367959976199,
		-0.2585434019565582,
		-0.0898783802986145,
		-0.964897096157074],
		"max":[0.33543065190315249,
		0.258819043636322,
		0.09235235303640366,
		0.9659258127212524]
	},
	{
		"bufferView":6,
		"type":"SCALAR",
		"componentType":5123,
		"count":3,
		"byteOffset":0,
		"min":[0],
		"max":[2]
	},
	{
		"bufferView":7,
		"type":"VEC3",
		"componentType":5126,
		"count":3,
		"byteOffset":0,
		"min":[-0.9105944633483887,
		-7.143402729832389e-17,
		-0.5257319211959839],
		"max":[7.105427198782324e-17,
		8.412032429948226e-17,
		0.5257319211959839]
	},
	{
		"bufferView":8,
		"type":"SCALAR",
		"componentType":5126,
		"count":91,
		"byteOffset":0,
		"min":[0.0],
		"max":[3.0]
	},
	{
		"bufferView":8,
		"type":"VEC4",
		"componentType":5126,
		"count":91,
		"byteOffset":364,
		"min":[-0.09235236048698425,
		-0.25881892442703249,
		0.0002593343670014292,
		-0.9659258127212524],
		"max":[-0.00006948844384169206,
		0.25881901383399966,
		0.34466367959976199,
		0.9659254550933838]
	},
	{
		"bufferView":9,
		"type":"SCALAR",
		"componentType":5123,
		"count":3,
		"byteOffset":0,
		"min":[0],
		"max":[2]
	},
	{
		"bufferView":10,
		"type":"VEC3",
		"componentType":5126,
		"count":3,
		"byteOffset":0,
		"min":[-0.5257319211959839,
		-5.4482691105891049e-17,
		-1.77635686587003e-16],
		"max":[0.5257319211959839,
		3.6719123108935238e-17,
		0.9105944633483887]
	},
	{
		"bufferView":11,
		"type":"SCALAR",
		"componentType":5126,
		"count":91,
		"byteOffset":0,
		"min":[0.0],
		"max":[3.0]
	},
	{
		"bufferView":11,
		"type":"VEC4",
		"componentType":5126,
		"count":91,
		"byteOffset":364,
		"min":[-0.34466367959976199,
		-0.25880053639411929,
		-0.09235234558582306,
		-0.9659258127212524],
		"max":[0.27243897318840029,
		0.258819043636322,
		0.07299981266260147,
		0.9658567309379578]
	},
	{
		"bufferView":12,
		"type":"SCALAR",
		"componentType":5123,
		"count":3,
		"byteOffset":0,
		"min":[0],
		"max":[2]
	},
	{
		"bufferView":13,
		"type":"VEC3",
		"componentType":5126,
		"count":3,
		"byteOffset":0,
		"min":[-2.4868995857482627e-16,
		-3.5641063248806307e-16,
		-0.5257319211959839],
		"max":[0.9105944633483887,
		2.8535634726535e-16,
		0.5257319211959839]
	},
	{
		"bufferView":14,
		"type":"SCALAR",
		"componentType":5126,
		"count":91,
		"byteOffset":0,
		"min":[0.0],
		"max":[3.0]
	},
	{
		"bufferView":14,
		"type":"VEC4",
		"componentType":5126,
		"count":91,
		"byteOffset":364,
		"min":[-0.34466367959976199,
		0.9023411870002747,
		0.000845091009978205,
		-0.2588176727294922],
		"max":[-0.003153870813548565,
		0.9659206867218018,
		0.09235237538814545,
		-0.24178160727024079]
	},
	{
		"bufferView":15,
		"type":"SCALAR",
		"componentType":5123,
		"count":3,
		"byteOffset":0,
		"min":[0],
		"max":[2]
	},
	{
		"bufferView":16,
		"type":"VEC3",
		"componentType":5126,
		"count":3,
		"byteOffset":0,
		"min":[-0.5257319211959839,
		-2.8421708795129299e-16,
		-0.9105944633483887],
		"max":[0.5257319211959839,
		0.0,
		3.552713599391162e-17]
	},
	{
		"bufferView":17,
		"type":"SCALAR",
		"componentType":5126,
		"count":91,
		"byteOffset":0,
		"min":[0.0],
		"max":[3.0]
	},
	{
		"bufferView":17,
		"type":"VEC4",
		"componentType":5126,
		"count":91,
		"byteOffset":364,
		"min":[-0.3354027569293976,
		-0.25864121317863467,
		-0.0898708924651146,
		-0.9659258127212524],
		"max":[0.34466367959976199,
		0.258819043636322,
		0.09235235303640366,
		0.9652621150016785]
	},
	{
		"bufferView":18,
		"type":"SCALAR",
		"componentType":5123,
		"count":3,
		"byteOffset":0,
		"min":[0],
		"max":[2]
	},
	{
		"bufferView":19,
		"type":"VEC3",
		"componentType":5126,
		"count":3,
		"byteOffset":0,
		"min":[-1.77635686587003e-16,
		-1.4160216385697623e-16,
		-0.5257319211959839],
		"max":[0.9105944633483887,
		1.568202357200328e-16,
		0.5257319211959839]
	},
	{
		"bufferView":20,
		"type":"SCALAR",
		"componentType":5126,
		"count":91,
		"byteOffset":0,
		"min":[0.0],
		"max":[3.0]
	},
	{
		"bufferView":20,
		"type":"VEC4",
		"componentType":5126,
		"count":91,
		"byteOffset":364,
		"min":[-0.4999980926513672,
		-0.1796257346868515,
		-0.8660253286361694,
		-0.30691102147102358],
		"max":[-0.46662038564682009,
		-0.0013833550037816167,
		-0.8098182678222656,
		0.0021105397026985885]
	},
	{
		"bufferView":21,
		"type":"SCALAR",
		"componentType":5123,
		"count":3,
		"byteOffset":0,
		"min":[0],
		"max":[2]
	},
	{
		"bufferView":22,
		"type":"VEC3",
		"componentType":5126,
		"count":3,
		"byteOffset":0,
		"min":[-3.9079850255047275e-16,
		-4.598908741788876e-16,
		-0.5257319211959839],
		"max":[0.9105944633483887,
		2.847869823061175e-16,
		0.5257319211959839]
	},
	{
		"bufferView":23,
		"type":"SCALAR",
		"componentType":5126,
		"count":91,
		"byteOffset":0,
		"min":[0.0],
		"max":[3.0]
	},
	{
		"bufferView":23,
		"type":"VEC4",
		"componentType":5126,
		"count":91,
		"byteOffset":364,
		"min":[-0.17841105163097382,
		0.46708616614341738,
		-0.30901700258255007,
		0.80901700258255],
		"max":[-0.00008969441114459187,
		0.4999999701976776,
		-0.00015535528655163944,
		0.8660253882408142]
	},
	{
		"bufferView":24,
		"type":"SCALAR",
		"componentType":5123,
		"count":3,
		"byteOffset":0,
		"min":[0],
		"max":[2]
	},
	{
		"bufferView":25,
		"type":"VEC3",
		"componentType":5126,
		"count":3,
		"byteOffset":0,
		"min":[-7.105427198782324e-17,
		-1.50262572816839e-16,
		-0.5257319211959839],
		"max":[0.9105944633483887,
		3.733801633452496e-17,
		0.5257319211959839]
	},
	{
		"bufferView":26,
		"type":"SCALAR",
		"componentType":5126,
		"count":91,
		"byteOffset":0,
		"min":[0.0],
		"max":[3.0]
	},
	{
		"bufferView":26,
		"type":"VEC4",
		"componentType":5126,
		"count":91,
		"byteOffset":364,
		"min":[-0.17841105163097382,
		-0.5,
		0.0000442928503616713,
		-0.8660253882408142],
		"max":[-0.00002557248626544606,
		0.5,
		0.30901700258255007,
		0.8660253882408142]
	},
	{
		"bufferView":27,
		"type":"SCALAR",
		"componentType":5123,
		"count":3,
		"byteOffset":0,
		"min":[0],
		"max":[2]
	},
	{
		"bufferView":28,
		"type":"VEC3",
		"componentType":5126,
		"count":3,
		"byteOffset":0,
		"min":[-1.77635686587003e-16,
		-2.2930193027754697e-16,
		-0.5257319211959839],
		"max":[0.9105944633483887,
		4.151170169894907e-17,
		0.5257319211959839]
	},
	{
		"bufferView":29,
		"type":"SCALAR",
		"componentType":5126,
		"count":91,
		"byteOffset":0,
		"min":[0.0],
		"max":[3.0]
	},
	{
		"bufferView":29,
		"type":"VEC4",
		"componentType":5126,
		"count":91,
		"byteOffset":364,
		"min":[-0.17841105163097382,
		0.46708616614341738,
		-0.30901700258255007,
		0.80901700258255],
		"max":[-0.0008796080946922302,
		0.4999992251396179,
		-0.0015235260361805559,
		0.8660240769386292]
	},
	{
		"bufferView":30,
		"type":"SCALAR",
		"componentType":5123,
		"count":3,
		"byteOffset":0,
		"min":[0],
		"max":[2]
	},
	{
		"bufferView":31,
		"type":"VEC3",
		"componentType":5126,
		"count":3,
		"byteOffset":0,
		"min":[-0.9105944633483887,
		-3.3408988495981376e-16,
		-0.5257319211959839],
		"max":[0.0,
		7.448590685961583e-17,
		0.5257319211959839]
	},
	{
		"bufferView":32,
		"type":"SCALAR",
		"componentType":5126,
		"count":91,
		"byteOffset":0,
		"min":[0.0],
		"max":[3.0]
	},
	{
		"bufferView":32,
		"type":"VEC4",
		"componentType":5126,
		"count":91,
		"byteOffset":364,
		"min":[-0.30901703238487246,
		-0.8660253882408142,
		-0.17841099202632905,
		-0.5],
		"max":[-0.00016631220933049917,
		0.8660253882408142,
		-0.00009609985136194155,
		0.5]
	},
	{
		"bufferView":33,
		"type":"SCALAR",
		"componentType":5123,
		"count":3,
		"byteOffset":0,
		"min":[0],
		"max":[2]
	},
	{
		"bufferView":34,
		"type":"VEC3",
		"componentType":5126,
		"count":3,
		"byteOffset":0,
		"min":[-0.5257319211959839,
		-7.341361608795109e-17,
		-1.9539925127523637e-16],
		"max":[0.5257319211959839,
		7.341361608795109e-17,
		0.9105944633483887]
	},
	{
		"bufferView":35,
		"type":"SCALAR",
		"componentType":5126,
		"count":91,
		"byteOffset":0,
		"min":[0.0],
		"max":[3.0]
	},
	{
		"bufferView":35,
		"type":"VEC4",
		"componentType":5126,
		"count":91,
		"byteOffset":364,
		"min":[-0.3441826403141022,
		-0.25881901383399966,
		-0.09222345799207688,
		-0.9659258127212524],
		"max":[0.34466367959976199,
		0.258819043636322,
		0.09235235303640366,
		0.9659257531166077]
	},
	{
		"bufferView":36,
		"type":"SCALAR",
		"componentType":5123,
		"count":3,
		"byteOffset":0,
		"min":[0],
		"max":[2]
	},
	{
		"bufferView":37,
		"type":"VEC3",
		"componentType":5126,
		"count":3,
		"byteOffset":0,
		"min":[-0.5257319211959839,
		0.0,
		-0.9105944633483887],
		"max":[0.5257319211959839,
		0.0,
		0.0]
	},
	{
		"bufferView":38,
		"type":"SCALAR",
		"componentType":5126,
		"count":91,
		"byteOffset":0,
		"min":[0.0],
		"max":[3.0]
	},
	{
		"bufferView":38,
		"type":"VEC4",
		"componentType":5126,
		"count":91,
		"byteOffset":364,
		"min":[-0.25884056091308596,
		0.00005946413511992432,
		-0.9659227728843689,
		-0.09000435471534729],
		"max":[-0.2426775097846985,
		0.34403344988822939,
		-0.9025784134864807,
		0.0023167512845247986]
	},
	{
		"bufferView":39,
		"type":"SCALAR",
		"componentType":5123,
		"count":3,
		"byteOffset":0,
		"min":[0],
		"max":[2]
	},
	{
		"bufferView":40,
		"type":"VEC3",
		"componentType":5126,
		"count":3,
		"byteOffset":0,
		"min":[-0.5257319211959839,
		0.0,
		-0.9105944633483887],
		"max":[0.5257319211959839,
		0.0,
		0.0]
	},
	{
		"bufferView":41,
		"type":"SCALAR",
		"componentType":5126,
		"count":91,
		"byteOffset":0,
		"min":[0.0],
		"max":[3.0]
	},
	{
		"bufferView":41,
		"type":"VEC4",
		"componentType":5126,
		"count":91,
		"byteOffset":364,
		"min":[-0.30901700258255007,
		-0.4995776116847992,
		-0.17688670754432679,
		-0.8652938008308411],
		"max":[0.30637672543525698,
		0.5,
		0.17841105163097382,
		0.8660253882408142]
	},
	{
		"bufferView":42,
		"type":"SCALAR",
		"componentType":5123,
		"count":3,
		"byteOffset":0,
		"min":[0],
		"max":[2]
	},
	{
		"bufferView":43,
		"type":"VEC3",
		"componentType":5126,
		"count":3,
		"byteOffset":0,
		"min":[-0.00023362414503935724,
		-1.405333406264393e-16,
		-0.5257319211959839],
		"max":[0.9105943441390991,
		6.947906863861606e-17,
		0.5257319211959839]
	},
	{
		"bufferView":44,
		"type":"SCALAR",
		"componentType":5126,
		"count":91,
		"byteOffset":0,
		"min":[0.0],
		"max":[3.0]
	},
	{
		"bufferView":44,
		"type":"VEC4",
		"componentType":5126,
		"count":91,
		"byteOffset":364,
		"min":[-0.09227577596902847,
		0.2419820874929428,
		-0.3446841835975647,
		0.902287483215332],
		"max":[-0.0006115993019193411,
		0.25897833704948428,
		-0.0028529686387628319,
		0.9658787250518799]
	},
	{
		"bufferView":45,
		"type":"SCALAR",
		"componentType":5123,
		"count":3,
		"byteOffset":0,
		"min":[0],
		"max":[2]
	},
	{
		"bufferView":46,
		"type":"VEC3",
		"componentType":5126,
		"count":3,
		"byteOffset":0,
		"min":[-0.9105944633483887,
		-2.562004673692321e-16,
		-0.5257319211959839],
		"max":[3.55271373174006e-16,
		-1.31855488081819e-16,
		0.5257319211959839]
	},
	{
		"bufferView":47,
		"type":"SCALAR",
		"componentType":5126,
		"count":91,
		"byteOffset":0,
		"min":[0.0],
		"max":[3.0]
	},
	{
		"bufferView":47,
		"type":"VEC4",
		"componentType":5126,
		"count":91,
		"byteOffset":364,
		"min":[-0.3090566098690033,
		-0.866136372089386,
		0.00006619779014727101,
		-0.49980756640434267],
		"max":[-0.00011457958316896111,
		0.8661364912986755,
		0.17834238708019257,
		0.4998074769973755]
	},
	{
		"bufferView":48,
		"type":"SCALAR",
		"componentType":5123,
		"count":3,
		"byteOffset":0,
		"min":[0],
		"max":[2]
	},
	{
		"bufferView":49,
		"type":"VEC3",
		"componentType":5126,
		"count":3,
		"byteOffset":0,
		"min":[-0.5257319211959839,
		-1.4210854397564649e-16,
		-0.9105944633483887],
		"max":[0.5257319211959839,
		0.0,
		3.552713599391162e-17]
	},
	{
		"bufferView":50,
		"type":"SCALAR",
		"componentType":5126,
		"count":91,
		"byteOffset":0,
		"min":[0.0],
		"max":[3.0]
	},
	{
		"bufferView":50,
		"type":"VEC4",
		"componentType":5126,
		"count":91,
		"byteOffset":364,
		"min":[-0.09235236048698425,
		0.9023411870002747,
		0.00038226103060878813,
		0.2417815923690796],
		"max":[-0.00010242652933811769,
		0.9659257531166077,
		0.34466370940208437,
		0.25881901383399966]
	},
	{
		"bufferView":51,
		"type":"SCALAR",
		"componentType":5123,
		"count":3,
		"byteOffset":0,
		"min":[0],
		"max":[2]
	},
	{
		"bufferView":52,
		"type":"VEC3",
		"componentType":5126,
		"count":3,
		"byteOffset":0,
		"min":[-0.9105944633483887,
		-3.973604932626314e-16,
		-0.5257319211959839],
		"max":[1.4210854397564649e-16,
		3.973604932626314e-16,
		0.5257319211959839]
	},
	{
		"bufferView":53,
		"type":"SCALAR",
		"componentType":5126,
		"count":91,
		"byteOffset":0,
		"min":[0.0],
		"max":[3.0]
	},
	{
		"bufferView":53,
		"type":"VEC4",
		"componentType":5126,
		"count":91,
		"byteOffset":364,
		"min":[-0.34466367959976199,
		-0.9659256339073181,
		0.000011281999832135626,
		-0.258819043636322],
		"max":[-0.00004210499537293799,
		0.9659258127212524,
		0.09235237538814545,
		0.25881898403167727]
	},
	{
		"bufferView":54,
		"type":"SCALAR",
		"componentType":5123,
		"count":3,
		"byteOffset":0,
		"min":[0],
		"max":[2]
	},
	{
		"bufferView":55,
		"type":"VEC3",
		"componentType":5126,
		"count":3,
		"byteOffset":0,
		"min":[-0.5257319211959839,
		-3.606338328839546e-16,
		-1.4210854397564649e-16],
		"max":[0.5257319211959839,
		5.814194027422312e-16,
		0.9105944633483887]
	},
	{
		"bufferView":56,
		"type":"SCALAR",
		"componentType":5126,
		"count":91,
		"byteOffset":0,
		"min":[0.0],
		"max":[3.0]
	},
	{
		"bufferView":56,
		"type":"VEC4",
		"componentType":5126,
		"count":91,
		"byteOffset":364,
		"min":[-0.09235236048698425,
		-0.9654989838600159,
		-0.34466370940208437,
		-0.258819043636322],
		"max":[0.007693291176110506,
		0.9659257531166077,
		0.028711780905723573,
		0.25870469212532046]
	},
	{
		"bufferView":57,
		"type":"SCALAR",
		"componentType":5123,
		"count":3,
		"byteOffset":0,
		"min":[0],
		"max":[2]
	},
	{
		"bufferView":58,
		"type":"VEC3",
		"componentType":5126,
		"count":3,
		"byteOffset":0,
		"min":[0.5257319211959839,
		-0.8506521582603455,
		-0.5257319211959839],
		"max":[0.8506521582603455,
		0.0,
		0.5257319211959839]
	}],
	"bufferViews":[{
		"buffer":0,
		"byteOffset":0,
		"byteLength":6,
		"target":34963
	},
	{
		"buffer":0,
		"byteOffset":8,
		"byteLength":36,
		"target":34962
	},
	{
		"buffer":1,
		"byteOffset":0,
		"byteLength":1820
	},
	{
		"buffer":2,
		"byteOffset":0,
		"byteLength":6,
		"target":34963
	},
	{
		"buffer":2,
		"byteOffset":8,
		"byteLength":36,
		"target":34962
	},
	{
		"buffer":3,
		"byteOffset":0,
		"byteLength":1820
	},
	{
		"buffer":4,
		"byteOffset":0,
		"byteLength":6,
		"target":34963
	},
	{
		"buffer":4,
		"byteOffset":8,
		"byteLength":36,
		"target":34962
	},
	{
		"buffer":5,
		"byteOffset":0,
		"byteLength":1820
	},
	{
		"buffer":6,
		"byteOffset":0,
		"byteLength":6,
		"target":34963
	},
	{
		"buffer":6,
		"byteOffset":8,
		"byteLength":36,
		"target":34962
	},
	{
		"buffer":7,
		"byteOffset":0,
		"byteLength":1820
	},
	{
		"buffer":8,
		"byteOffset":0,
		"byteLength":6,
		"target":34963
	},
	{
		"buffer":8,
		"byteOffset":8,
		"byteLength":36,
		"target":34962
	},
	{
		"buffer":9,
		"byteOffset":0,
		"byteLength":1820
	},
	{
		"buffer":10,
		"byteOffset":0,
		"byteLength":6,
		"target":34963
	},
	{
		"buffer":10,
		"byteOffset":8,
		"byteLength":36,
		"target":34962
	},
	{
		"buffer":11,
		"byteOffset":0,
		"byteLength":1820
	},
	{
		"buffer":12,
		"byteOffset":0,
		"byteLength":6,
		"target":34963
	},
	{
		"buffer":12,
		"byteOffset":8,
		"byteLength":36,
		"target":34962
	},
	{
		"buffer":13,
		"byteOffset":0,
		"byteLength":1820
	},
	{
		"buffer":14,
		"byteOffset":0,
		"byteLength":6,
		"target":34963
	},
	{
		"buffer":14,
		"byteOffset":8,
		"byteLength":36,
		"target":34962
	},
	{
		"buffer":15,
		"byteOffset":0,
		"byteLength":1820
	},
	{
		"buffer":16,
		"byteOffset":0,
		"byteLength":6,
		"target":34963
	},
	{
		"buffer":16,
		"byteOffset":8,
		"byteLength":36,
		"target":34962
	},
	{
		"buffer":17,
		"byteOffset":0,
		"byteLength":1820
	},
	{
		"buffer":18,
		"byteOffset":0,
		"byteLength":6,
		"target":34963
	},
	{
		"buffer":18,
		"byteOffset":8,
		"byteLength":36,
		"target":34962
	},
	{
		"buffer":19,
		"byteOffset":0,
		"byteLength":1820
	},
	{
		"buffer":20,
		"byteOffset":0,
		"byteLength":6,
		"target":34963
	},
	{
		"buffer":20,
		"byteOffset":8,
		"byteLength":36,
		"target":34962
	},
	{
		"buffer":21,
		"byteOffset":0,
		"byteLength":1820
	},
	{
		"buffer":22,
		"byteOffset":0,
		"byteLength":6,
		"target":34963
	},
	{
		"buffer":22,
		"byteOffset":8,
		"byteLength":36,
		"target":34962
	},
	{
		"buffer":23,
		"byteOffset":0,
		"byteLength":1820
	},
	{
		"buffer":24,
		"byteOffset":0,
		"byteLength":6,
		"target":34963
	},
	{
		"buffer":24,
		"byteOffset":8,
		"byteLength":36,
		"target":34962
	},
	{
		"buffer":25,
		"byteOffset":0,
		"byteLength":1820
	},
	{
		"buffer":26,
		"byteOffset":0,
		"byteLength":6,
		"target":34963
	},
	{
		"buffer":26,
		"byteOffset":8,
		"byteLength":36,
		"target":34962
	},
	{
		"buffer":27,
		"byteOffset":0,
		"byteLength":1820
	},
	{
		"buffer":28,
		"byteOffset":0,
		"byteLength":6,
		"target":34963
	},
	{
		"buffer":28,
		"byteOffset":8,
		"byteLength":36,
		"target":34962
	},
	{
		"buffer":29,
		"byteOffset":0,
		"byteLength":1820
	},
	{
		"buffer":30,
		"byteOffset":0,
		"byteLength":6,
		"target":34963
	},
	{
		"buffer":30,
		"byteOffset":8,
		"byteLength":36,
		"target":34962
	},
	{
		"buffer":31,
		"byteOffset":0,
		"byteLength":1820
	},
	{
		"buffer":32,
		"byteOffset":0,
		"byteLength":6,
		"target":34963
	},
	{
		"buffer":32,
		"byteOffset":8,
		"byteLength":36,
		"target":34962
	},
	{
		"buffer":33,
		"byteOffset":0,
		"byteLength":1820
	},
	{
		"buffer":34,
		"byteOffset":0,
		"byteLength":6,
		"target":34963
	},
	{
		"buffer":34,
		"byteOffset":8,
		"byteLength":36,
		"target":34962
	},
	{
		"buffer":35,
		"byteOffset":0,
		"byteLength":1820
	},
	{
		"buffer":36,
		"byteOffset":0,
		"byteLength":6,
		"target":34963
	},
	{
		"buffer":36,
		"byteOffset":8,
		"byteLength":36,
		"target":34962
	},
	{
		"buffer":37,
		"byteOffset":0,
		"byteLength":1820
	},
	{
		"buffer":38,
		"byteOffset":0,
		"byteLength":6,
		"target":34963
	},
	{
		"buffer":38,
		"byteOffset":8,
		"byteLength":36,
		"target":34962
	}],
	"buffers":[{
		"uri":"data:application/octet-stream;base64,",
		"byteLength":44
	},
	{
		"uri":"data:application/octet-stream;base64,",
		"byteLength":1820
	},
	{
		"uri":"data:application/octet-stream;base64,",
		"byteLength":44
	},
	{
		"uri":"data:application/octet-stream;base64,",
		"byteLength":1820
	},
	{
		"uri":"data:application/octet-stream;base64,",
		"byteLength":44
	},
	{
		"uri":"data:application/octet-stream;base64,",
		"byteLength":1820
	},
	{
		"uri":"data:application/octet-stream;base64,",
		"byteLength":44
	},
	{
		"uri":"data:application/octet-stream;base64,",
		"byteLength":1820
	},
	{
		"uri":"data:application/octet-stream;base64,",
		"byteLength":44
	},
	{
		"uri":"data:application/octet-stream;base64,",
		"byteLength":1820
	},
	{
		"uri":"data:application/octet-stream;base64,",
		"byteLength":44
	},
	{
		"uri":"data:application/octet-stream;base64,",
		"byteLength":1820
	},
	{
		"uri":"data:application/octet-stream;base64,",
		"byteLength":44
	},
	{
		"uri":"data:application/octet-stream;base64,",
		"byteLength":1820
	},
	{
		"uri":"data:application/octet-stream;base64,",
		"byteLength":44
	},
	{
		"uri":"data:application/octet-stream;base64,",
		"byteLength":1820
	},
	{
		"uri":"data:application/octet-stream;base64,",
		"byteLength":44
	},
	{
		"uri":"data:application/octet-stream;base64,",
		"byteLength":1820
	},
	{
		"uri":"data:application/octet-stream;base64,",
		"byteLength":44
	},
	{
		"uri":"data:application/octet-stream;base64,",
		"byteLength":1820
	},
	{
		"uri":"data:application/octet-stream;base64,",
		"byteLength":44
	},
	{
		"uri":"data:application/octet-stream;base64,",
		"byteLength":1820
	},
	{
		"uri":"data:application/octet-stream;base64,",
		"byteLength":44
	},
	{
		"uri":"data:application/octet-stream;base64,",
		"byteLength":1820
	},
	{
		"uri":"data:application/octet-stream;base64,",
		"byteLength":44
	},
	{
		"uri":"data:application/octet-stream;base64,",
		"byteLength":1820
	},
	{
		"uri":"data:application/octet-stream;base64,",
		"byteLength":44
	},
	{
		"uri":"data:application/octet-stream;base64,",
		"byteLength":1820
	},
	{
		"uri":"data:application/octet-stream;base64,",
		"byteLength":44
	},
	{
		"uri":"data:application/octet-stream;base64,",
		"byteLength":1820
	},
	{
		"uri":"data:application/octet-stream;base64,",
		"byteLength":44
	},
	{
		"uri":"data:application/octet-stream;base64,",
		"byteLength":1820
	},
	{
		"uri":"data:application/octet-stream;base64,",
		"byteLength":44
	},
	{
		"uri":"data:application/octet-stream;base64,",
		"byteLength":1820
	},
	{
		"uri":"data:application/octet-stream;base64,",
		"byteLength":44
	},
	{
		"uri":"data:application/octet-stream;base64,",
		"byteLength":1820
	},
	{
		"uri":"data:application/octet-stream;base64,",
		"byteLength":44
	},
	{
		"uri":"data:application/octet-stream;base64,",
		"byteLength":1820
	},
	{
		"uri":"data:application/octet-stream;base64,",
		"byteLength":44
	}],
	"animations":[{
		"samplers":[{
			"input":2,
			"interpolation":"LINEAR",
			"output":3
		},
		{
			"input":6,
			"interpolation":"LINEAR",
			"output":7
		},
		{
			"input":10,
			"interpolation":"LINEAR",
			"output":11
		},
		{
			"input":14,
			"interpolation":"LINEAR",
			"output":15
		},
		{
			"input":18,
			"interpolation":"LINEAR",
			"output":19
		},
		{
			"input":22,
			"interpolation":"LINEAR",
			"output":23
		},
		{
			"input":26,
			"interpolation":"LINEAR",
			"output":27
		},
		{
			"input":30,
			"interpolation":"LINEAR",
			"output":31
		},
		{
			"input":34,
			"interpolation":"LINEAR",
			"output":35
		},
		{
			"input":38,
			"interpolation":"LINEAR",
			"output":39
		},
		{
			"input":42,
			"interpolation":"LINEAR",
			"output":43
		},
		{
			"input":46,
			"interpolation":"LINEAR",
			"output":47
		},
		{
			"input":50,
			"interpolation":"LINEAR",
			"output":51
		},
		{
			"input":54,
			"interpolation":"LINEAR",
			"output":55
		},
		{
			"input":58,
			"interpolation":"LINEAR",
			"output":59
		},
		{
			"input":62,
			"interpolation":"LINEAR",
			"output":63
		},
		{
			"input":66,
			"interpolation":"LINEAR",
			"output":67
		},
		{
			"input":70,
			"interpolation":"LINEAR",
			"output":71
		},
		{
			"input":74,
			"interpolation":"LINEAR",
			"output":75
		}],
		"channels":[{
			"sampler":0,
			"target":{
				"node":0,
				"path":"rotation"
			}
		},
		{
			"sampler":1,
			"target":{
				"node":1,
				"path":"rotation"
			}
		},
		{
			"sampler":2,
			"target":{
				"node":2,
				"path":"rotation"
			}
		},
		{
			"sampler":3,
			"target":{
				"node":3,
				"path":"rotation"
			}
		},
		{
			"sampler":4,
			"target":{
				"node":4,
				"path":"rotation"
			}
		},
		{
			"sampler":5,
			"target":{
				"node":5,
				"path":"rotation"
			}
		},
		{
			"sampler":6,
			"target":{
				"node":6,
				"path":"rotation"
			}
		},
		{
			"sampler":7,
			"target":{
				"node":7,
				"path":"rotation"
			}
		},
		{
			"sampler":8,
			"target":{
				"node":8,
				"path":"rotation"
			}
		},
		{
			"sampler":9,
			"target":{
				"node":9,
				"path":"rotation"
			}
		},
		{
			"sampler":10,
			"target":{
				"node":10,
				"path":"rotation"
			}
		},
		{
			"sampler":11,
			"target":{
				"node":11,
				"path":"rotation"
			}
		},
		{
			"sampler":12,
			"target":{
				"node":12,
				"path":"rotation"
			}
		},
		{
			"sampler":13,
			"target":{
				"node":13,
				"path":"rotation"
			}
		},
		{
			"sampler":14,
			"target":{
				"node":14,
				"path":"rotation"
			}
		},
		{
			"sampler":15,
			"target":{
				"node":15,
				"path":"rotation"
			}
		},
		{
			"sampler":16,
			"target":{
				"node":16,
				"path":"rotation"
			}
		},
		{
			"sampler":17,
			"target":{
				"node":17,
				"path":"rotation"
			}
		},
		{
			"sampler":18,
			"target":{
				"node":18,
				"path":"rotation"
			}
		}]
	}]
}