{
	"nodes":[{
		"name":"Polygon Reduction",
		"translation":[-0.051932137459516528,
		-0.6504001021385193,
		-0.38828596472740176],
		"rotation":[0.0,
		0.0,
		0.0,
		-1.0],
		"scale":[1.0,
		1.0,
		1.0],
		"children":[1]
	},
	{
		"name":"Landscape",
		"mesh":0
	}],
	"asset":{
		"version":"2.0",
		"generator":"Created using the official Cinema 4D glTF Exporter 1.000x284978"
	},
	"scenes":[{
		"nodes":[0]
	}],
	"meshes":[{
		"name":"Landscape",
		"primitives":[{
			"indices":0,
			"attributes":{
				"POSITION":1
			}
		}]
	}],
	"accessors":[{
		"bufferView":0,
		"type":"SCALAR",
		"componentType":5123,
		"count":3897,
		"byteOffset":0,
		"min":[0],
		"max":[826]
	},
	{
		"bufferView":1,
		"type":"VEC3",
		"componentType":5126,
		"count":827,
		"byteOffset":0,
		"min":[-22.339990615844728,
		0.027933785691857339,
		-20.822559356689454],
		"max":[22.339990615844728,
		2.832562208175659,
		20.82255744934082]
	}],
	"bufferViews":[{
		"buffer":0,
		"byteOffset":0,
		"byteLength":7794,
		"target":34963
	},
	{
		"buffer":0,
		"byteOffset":7796,
		"byteLength":9924,
		"target":34962
	}],
	"buffers":[{
		"uri":"data:application/octet-stream;base64,",
		"byteLength":17720
	}]
}